<?xml version="1.0" encoding="utf-8"?>
<!--
  Import to eagle using https://gfwilliams.github.io/svgtoeagle/

	Scale factor = 283.5 / YOUR_DESIRED_WIDTH

	EX: for 60mm width: Scale factor = 283.5 / 60 = 4.725
-->
<svg version="1.1" id="Layer_1" xmlns="http://www.w3.org/2000/svg" xmlns:xlink="http://www.w3.org/1999/xlink" viewBox="0 0 283.5 57.8" style="enable-background:new 0 0 283.5 57.8;" xml:space="preserve">
<style type="text/css">
	.st0{fill:#231F20;}
</style>
<path fill="black" d="M115,52.6L100.8,28l13.6-22.5c0.1-0.2,0.1-0.4,0-0.6c-0.1-0.2-0.3-0.3-0.5-0.3h-8.2c-0.2,0-0.4,0.1-0.5,0.3
	l-9.1,15.3L87.4,4.9c-0.1-0.2-0.3-0.3-0.5-0.3h-8.2c-0.2,0-0.4,0.1-0.5,0.3c-0.1,0.2-0.1,0.4,0,0.6l13,22.5L76.4,52.6
	c-0.1,0.2-0.1,0.4,0,0.6c0.1,0.2,0.3,0.3,0.5,0.3H85c0.2,0,0.4-0.1,0.5-0.3l10.4-17.4L106,53.2c0.1,0.2,0.3,0.3,0.5,0.3h8.1
	c0.2,0,0.4-0.1,0.5-0.3C115.1,53,115.1,52.8,115,52.6z"/>
<path fill="black" d="M160.2,12c-5-5.5-11.3-8.3-18.7-8.3c-7,0.1-13,2.5-17.8,7.2c-5.2,5-7.8,11-7.8,17.9c0,4.4,0.9,8.5,2.8,12
	c2.3,4.4,5.8,7.9,10.4,10.4c3.8,2.1,7.9,3.1,12.1,3.1c4.7,0,9.2-1.2,13.1-3.5c3.9-2.3,7-5.3,9.2-9.2c2.3-3.9,3.4-8.1,3.4-12.6
	C166.9,22.6,164.6,16.9,160.2,12z M156.5,37.4c-1.4,2.8-3.6,5-6.4,6.7c-2.7,1.6-5.7,2.4-8.9,2.4c-4.4,0-8.4-1.7-11.8-4.9
	c-3.4-3.3-5.1-7.5-5.1-12.6c0-4.2,1.4-7.9,4-11.2c3.3-4,7.7-6.1,13.1-6.1c4.9,0.1,9,1.8,12.1,5c3.3,3.4,4.9,7.6,4.9,12.4
	C158.5,32.1,157.8,34.9,156.5,37.4z"/>
<path fill="black" d="M217.3,4.7h-7.2c-0.3,0-0.6,0.3-0.6,0.6v31.7L175.8,1.6c-0.1-0.1-0.3-0.2-0.4-0.2c-0.1,0-0.1,0-0.2,0
	c-0.2,0.1-0.4,0.3-0.4,0.5v50.9c0,0.3,0.3,0.6,0.6,0.6h7.2c0.3,0,0.6-0.3,0.6-0.6v-32l33.8,35.3c0.1,0.1,0.3,0.2,0.4,0.2
	c0.1,0,0.1,0,0.2,0c0.2-0.1,0.4-0.3,0.4-0.5V5.2C217.9,4.9,217.6,4.7,217.3,4.7z"/>
<path fill="black" d="M236,4.7h-7.2c-0.3,0-0.6,0.3-0.6,0.6v47.7c0,0.3,0.3,0.6,0.6,0.6h7.2c0.3,0,0.6-0.3,0.6-0.6V5.2
	C236.5,4.9,236.3,4.7,236,4.7z"/>
<path fill="black" d="M283.3,52.5L262,26.8l21.2-21.2c0.2-0.2,0.2-0.4,0.1-0.6c-0.1-0.2-0.3-0.3-0.5-0.3h-9.6c-0.2,0-0.3,0.1-0.4,0.2
	l-17.6,18V5.2c0-0.3-0.3-0.6-0.6-0.6h-7.2c-0.3,0-0.6,0.3-0.6,0.6v47.7c0,0.3,0.3,0.6,0.6,0.6h7.2c0.3,0,0.6-0.3,0.6-0.6V33.4
	l0.9-0.9l16.8,20.7c0.1,0.1,0.3,0.2,0.4,0.2h9.6c0.2,0,0.4-0.1,0.5-0.3C283.5,52.9,283.5,52.7,283.3,52.5z"/>
<path fill="black" d="M31.3,0.1C13.5-1.3-1.3,13.5,0.1,31.3c1.1,14,12.5,25.3,26.5,26.4c17.8,1.4,32.6-13.4,31.2-31.2
	C56.6,12.6,45.3,1.2,31.3,0.1z M13.2,42.1c-3.7,0-6.7-6-6.7-13.2c0-7.2,3.1-13.2,6.7-13.2c2.6,0,5.1,3.3,6.2,8.1c0,0.1,0,0.2,0,0.4
	c-0.7,1.5-1.1,3.1-1.1,4.7c0,1.6,0.4,3.3,1.1,4.7c0.1,0.1,0.1,0.2,0,0.4C18.4,38.8,15.9,42.1,13.2,42.1z M40.1,48.3
	c-3.2,1.8-6.7,2.9-9.6,2.9c-2.5,0-4.4-0.8-5.2-2.1c-1.3-2.3,0.3-6.1,3.9-9.4c0.1-0.1,0.2-0.1,0.3-0.1c3.3-0.2,6.3-2,8.2-4.7
	c0.1-0.1,0.2-0.2,0.3-0.2c1.7-0.6,3.5-0.8,5-0.8c2.5,0,4.4,0.8,5.2,2.1C50,39,46.3,44.7,40.1,48.3z M48.2,21.9
	c-0.8,1.4-2.6,2.1-5.2,2.1c-1.5,0-3.2-0.3-5-0.8c-0.1,0-0.2-0.1-0.3-0.2c-1.8-2.7-4.9-4.5-8.2-4.7c-0.1,0-0.2-0.1-0.3-0.1
	c-3.6-3.3-5.3-7.1-3.9-9.4c0.8-1.4,2.6-2.1,5.2-2.1c2.9,0,6.4,1.1,9.6,2.9C46.3,13.1,50,18.8,48.2,21.9z"/>
</svg>
