<?xml version="1.0" encoding="utf-8"?>
<!-- Generator: Adobe Illustrator 22.1.0, SVG Export Plug-In . SVG Version: 6.00 Build 0)  -->
<svg version="1.1" id="Layer_1" xmlns="http://www.w3.org/2000/svg" xmlns:xlink="http://www.w3.org/1999/xlink" x="0px" y="0px"
	 width="283.5px" height="57.8px" viewBox="0 0 283.5 57.8" style="enable-background:new 0 0 283.5 57.8;" xml:space="preserve">
<path fill="black" d="M115,52.6L100.8,28l13.6-22.5c0.1-0.2,0.1-0.4,0-0.6s-0.3-0.3-0.5-0.3h-8.2c-0.2,0-0.4,0.1-0.5,0.3l-9.1,15.3L87.4,4.9
	c-0.1-0.2-0.3-0.3-0.5-0.3h-8.2c-0.2,0-0.4,0.1-0.5,0.3c-0.1,0.2-0.1,0.4,0,0.6l13,22.5L76.4,52.6c-0.1,0.2-0.1,0.4,0,0.6
	c0.1,0.2,0.3,0.3,0.5,0.3H85c0.2,0,0.4-0.1,0.5-0.3l10.4-17.4L106,53.2c0.1,0.2,0.3,0.3,0.5,0.3h8.1c0.2,0,0.4-0.1,0.5-0.3
	C115.1,53,115.1,52.8,115,52.6z"/>
<path fill="black" d="M217.3,4.7h-7.2c-0.3,0-0.6,0.3-0.6,0.6V37L175.8,1.6c-0.1-0.1-0.3-0.2-0.4-0.2c-0.1,0-0.1,0-0.2,0
	c-0.2,0.1-0.4,0.3-0.4,0.5v50.9c0,0.3,0.3,0.6,0.6,0.6h7.2c0.3,0,0.6-0.3,0.6-0.6v-32L217,56.1c0.1,0.1,0.3,0.2,0.4,0.2
	c0.1,0,0.1,0,0.2,0c0.2-0.1,0.4-0.3,0.4-0.5V5.2C217.9,4.9,217.6,4.7,217.3,4.7z"/>
<path fill="black" d="M236,4.7h-7.2c-0.3,0-0.6,0.3-0.6,0.6V53c0,0.3,0.3,0.6,0.6,0.6h7.2c0.3,0,0.6-0.3,0.6-0.6V5.2C236.5,4.9,236.3,4.7,236,4.7
	z"/>
<path fill="black" d="M283.3,52.5L262,26.8l21.2-21.2c0.2-0.2,0.2-0.4,0.1-0.6s-0.3-0.3-0.5-0.3h-9.6c-0.2,0-0.3,0.1-0.4,0.2l-17.6,18V5.2
	c0-0.3-0.3-0.6-0.6-0.6h-7.2c-0.3,0-0.6,0.3-0.6,0.6v47.7c0,0.3,0.3,0.6,0.6,0.6h7.2c0.3,0,0.6-0.3,0.6-0.6V33.4l0.9-0.9l16.8,20.7
	c0.1,0.1,0.3,0.2,0.4,0.2h9.6c0.2,0,0.4-0.1,0.5-0.3S283.5,52.7,283.3,52.5z"/>
<path fill="black" d="M57.8,26.5C56.6,12.6,45.3,1.2,31.3,0.1c-0.4,0-0.8,0-1.3-0.1v6.7c0.2,0,0.3,0,0.5,0c2.9,0,6.4,1.1,9.6,2.9
	c6.2,3.5,9.9,9.2,8.1,12.3C47.4,23.3,45.6,24,43,24c-1.5,0-3.2-0.3-5-0.8c-0.1,0-0.2-0.1-0.3-0.2c-1.8-2.7-4.9-4.5-8.2-4.7
	c-0.1,0-0.2-0.1-0.3-0.1c-3.6-3.3-5.3-7.1-3.9-9.4c0.7-1.3,2.3-1.9,4.5-2.1V0C13.5-0.4,0.1,12.7,0,28.9h6.5c0-7.2,3.1-13.2,6.7-13.2
	c2.6,0,5.1,3.3,6.2,8.1c0,0.1,0,0.2,0,0.4c-0.7,1.5-1.1,3.1-1.1,4.7c0,1.6,0.4,3.3,1.1,4.7c0.1,0.1,0.1,0.2,0,0.4
	c-1,4.8-3.5,8.1-6.2,8.1c-3.7,0-6.6-5.9-6.7-13H0c0,0.7,0,1.4,0.1,2.2c1.1,14,12.5,25.3,26.5,26.4c1.1,0.1,2.1,0.1,3.2,0.1v-6.6
	c-2.1-0.1-3.7-0.9-4.5-2.1c-1.3-2.3,0.3-6.1,3.9-9.4c0.1-0.1,0.2-0.1,0.3-0.1c3.3-0.2,6.3-2,8.2-4.7c0.1-0.1,0.2-0.2,0.3-0.2
	c1.7-0.6,3.5-0.8,5-0.8c2.5,0,4.4,0.8,5.2,2.1c1.8,3-1.9,8.7-8.1,12.3c-3.2,1.8-6.7,2.9-9.6,2.9c-0.2,0-0.3,0-0.5,0v6.6
	C46.3,57.2,59.1,43.1,57.8,26.5z"/>
<g>
	<path fill="black" d="M124.3,28.9c0-4.1,1.4-7.8,4-11.1c3.3-4,7.7-6.1,13.1-6.1c4.9,0.1,9,1.8,12.1,5c3.2,3.3,4.8,7.5,4.9,12.2h8.5
		c0-6.3-2.3-12-6.7-16.9c-5-5.5-11.3-8.3-18.7-8.3c-7,0.1-13,2.5-17.8,7.2c-5.2,5-7.8,11-7.8,17.9c0,0,0,0,0,0.1H124.3z"/>
	<path fill="black" d="M158.4,29.1c0.1,3-0.6,5.8-1.9,8.3c-1.4,2.8-3.6,5-6.4,6.7c-2.7,1.6-5.7,2.4-8.9,2.4c-4.4,0-8.4-1.7-11.8-4.9
		c-3.4-3.3-5.1-7.4-5.1-12.5h-8.4c0,4.3,0.9,8.2,2.8,11.7c2.3,4.4,5.8,7.9,10.4,10.4c3.8,2.1,7.9,3.1,12.1,3.1
		c4.7,0,9.2-1.2,13.1-3.5c3.9-2.3,7-5.3,9.2-9.2c2.3-3.9,3.4-8,3.4-12.5H158.4z"/>
</g>
</svg>
